<mxfile host="app.diagrams.net" modified="2024-01-21T04:45:45.350Z" agent="Mozilla/5.0 (Windows NT 10.0; Win64; x64; rv:121.0) Gecko/20100101 Firefox/121.0" etag="LGshONKFi8ww8Q1xVGUG" version="22.1.21" type="device">
  <diagram id="C5RBs43oDa-KdzZeNtuy" name="Page-1">
    <mxGraphModel dx="2352" dy="671" grid="1" gridSize="10" guides="1" tooltips="1" connect="1" arrows="1" fold="1" page="1" pageScale="1" pageWidth="827" pageHeight="1169" math="0" shadow="0">
      <root>
        <mxCell id="WIyWlLk6GJQsqaUBKTNV-0" />
        <mxCell id="WIyWlLk6GJQsqaUBKTNV-1" parent="WIyWlLk6GJQsqaUBKTNV-0" />
        <mxCell id="zkfFHV4jXpPFQw0GAbJ--0" value="ogstream&#xa;" style="swimlane;fontStyle=2;align=center;verticalAlign=top;childLayout=stackLayout;horizontal=1;startSize=26;horizontalStack=0;resizeParent=1;resizeLast=0;collapsible=1;marginBottom=0;rounded=0;shadow=0;strokeWidth=1;fontSize=14;" parent="WIyWlLk6GJQsqaUBKTNV-1" vertex="1">
          <mxGeometry x="-280" y="40" width="400" height="450" as="geometry">
            <mxRectangle x="230" y="140" width="160" height="26" as="alternateBounds" />
          </mxGeometry>
        </mxCell>
        <mxCell id="zkfFHV4jXpPFQw0GAbJ--1" value="# int x" style="text;align=left;verticalAlign=top;spacingLeft=4;spacingRight=4;overflow=hidden;rotatable=0;points=[[0,0.5],[1,0.5]];portConstraint=eastwest;fontSize=13;" parent="zkfFHV4jXpPFQw0GAbJ--0" vertex="1">
          <mxGeometry y="26" width="400" height="26" as="geometry" />
        </mxCell>
        <mxCell id="zkfFHV4jXpPFQw0GAbJ--2" value="# int y" style="text;align=left;verticalAlign=top;spacingLeft=4;spacingRight=4;overflow=hidden;rotatable=0;points=[[0,0.5],[1,0.5]];portConstraint=eastwest;rounded=0;shadow=0;html=0;fontSize=13;" parent="zkfFHV4jXpPFQw0GAbJ--0" vertex="1">
          <mxGeometry y="52" width="400" height="26" as="geometry" />
        </mxCell>
        <mxCell id="zkfFHV4jXpPFQw0GAbJ--3" value="- struct Rect" style="text;align=left;verticalAlign=top;spacingLeft=4;spacingRight=4;overflow=hidden;rotatable=0;points=[[0,0.5],[1,0.5]];portConstraint=eastwest;rounded=0;shadow=0;html=0;fontSize=13;" parent="zkfFHV4jXpPFQw0GAbJ--0" vertex="1">
          <mxGeometry y="78" width="400" height="26" as="geometry" />
        </mxCell>
        <mxCell id="zkfFHV4jXpPFQw0GAbJ--4" value="" style="line;html=1;strokeWidth=1;align=left;verticalAlign=middle;spacingTop=-1;spacingLeft=3;spacingRight=3;rotatable=0;labelPosition=right;points=[];portConstraint=eastwest;" parent="zkfFHV4jXpPFQw0GAbJ--0" vertex="1">
          <mxGeometry y="104" width="400" height="8" as="geometry" />
        </mxCell>
        <mxCell id="zkfFHV4jXpPFQw0GAbJ--5" value="+ void drawKing(  int position, bool black)" style="text;align=left;verticalAlign=top;spacingLeft=4;spacingRight=4;overflow=hidden;rotatable=0;points=[[0,0.5],[1,0.5]];portConstraint=eastwest;fontSize=13;" parent="zkfFHV4jXpPFQw0GAbJ--0" vertex="1">
          <mxGeometry y="112" width="400" height="26" as="geometry" />
        </mxCell>
        <mxCell id="slwFmxNvVLJGjqbHmk_F-62" value="+ void drawQueen( int position, bool black)" style="text;align=left;verticalAlign=top;spacingLeft=4;spacingRight=4;overflow=hidden;rotatable=0;points=[[0,0.5],[1,0.5]];portConstraint=eastwest;fontSize=13;" parent="zkfFHV4jXpPFQw0GAbJ--0" vertex="1">
          <mxGeometry y="138" width="400" height="26" as="geometry" />
        </mxCell>
        <mxCell id="slwFmxNvVLJGjqbHmk_F-63" value="+ void drawRook(  int position, bool black)" style="text;align=left;verticalAlign=top;spacingLeft=4;spacingRight=4;overflow=hidden;rotatable=0;points=[[0,0.5],[1,0.5]];portConstraint=eastwest;fontSize=13;" parent="zkfFHV4jXpPFQw0GAbJ--0" vertex="1">
          <mxGeometry y="164" width="400" height="26" as="geometry" />
        </mxCell>
        <mxCell id="slwFmxNvVLJGjqbHmk_F-64" value="+ void drawPawn(  int position, bool black)" style="text;align=left;verticalAlign=top;spacingLeft=4;spacingRight=4;overflow=hidden;rotatable=0;points=[[0,0.5],[1,0.5]];portConstraint=eastwest;fontSize=13;" parent="zkfFHV4jXpPFQw0GAbJ--0" vertex="1">
          <mxGeometry y="190" width="400" height="26" as="geometry" />
        </mxCell>
        <mxCell id="slwFmxNvVLJGjqbHmk_F-65" value="+ void drawBishop(int position, bool black)" style="text;align=left;verticalAlign=top;spacingLeft=4;spacingRight=4;overflow=hidden;rotatable=0;points=[[0,0.5],[1,0.5]];portConstraint=eastwest;fontSize=13;" parent="zkfFHV4jXpPFQw0GAbJ--0" vertex="1">
          <mxGeometry y="216" width="400" height="26" as="geometry" />
        </mxCell>
        <mxCell id="slwFmxNvVLJGjqbHmk_F-68" value="+ void drawKnight(int position, bool black)" style="text;align=left;verticalAlign=top;spacingLeft=4;spacingRight=4;overflow=hidden;rotatable=0;points=[[0,0.5],[1,0.5]];portConstraint=eastwest;fontSize=13;" parent="zkfFHV4jXpPFQw0GAbJ--0" vertex="1">
          <mxGeometry y="242" width="400" height="26" as="geometry" />
        </mxCell>
        <mxCell id="slwFmxNvVLJGjqbHmk_F-67" value="+ void setPosition(int x, int y)" style="text;align=left;verticalAlign=top;spacingLeft=4;spacingRight=4;overflow=hidden;rotatable=0;points=[[0,0.5],[1,0.5]];portConstraint=eastwest;fontSize=13;" parent="zkfFHV4jXpPFQw0GAbJ--0" vertex="1">
          <mxGeometry y="268" width="400" height="26" as="geometry" />
        </mxCell>
        <mxCell id="slwFmxNvVLJGjqbHmk_F-66" value="+ void drawBoard()" style="text;align=left;verticalAlign=top;spacingLeft=4;spacingRight=4;overflow=hidden;rotatable=0;points=[[0,0.5],[1,0.5]];portConstraint=eastwest;fontSize=13;" parent="zkfFHV4jXpPFQw0GAbJ--0" vertex="1">
          <mxGeometry y="294" width="400" height="26" as="geometry" />
        </mxCell>
        <mxCell id="slwFmxNvVLJGjqbHmk_F-70" value="+ void drawSelected(int position)" style="text;align=left;verticalAlign=top;spacingLeft=4;spacingRight=4;overflow=hidden;rotatable=0;points=[[0,0.5],[1,0.5]];portConstraint=eastwest;fontSize=13;" parent="zkfFHV4jXpPFQw0GAbJ--0" vertex="1">
          <mxGeometry y="320" width="400" height="26" as="geometry" />
        </mxCell>
        <mxCell id="slwFmxNvVLJGjqbHmk_F-69" value="+ void drawHover(   int position)" style="text;align=left;verticalAlign=top;spacingLeft=4;spacingRight=4;overflow=hidden;rotatable=0;points=[[0,0.5],[1,0.5]];portConstraint=eastwest;fontSize=13;" parent="zkfFHV4jXpPFQw0GAbJ--0" vertex="1">
          <mxGeometry y="346" width="400" height="26" as="geometry" />
        </mxCell>
        <mxCell id="slwFmxNvVLJGjqbHmk_F-72" value="+ void drawPossible(int osition)" style="text;align=left;verticalAlign=top;spacingLeft=4;spacingRight=4;overflow=hidden;rotatable=0;points=[[0,0.5],[1,0.5]];portConstraint=eastwest;fontSize=13;" parent="zkfFHV4jXpPFQw0GAbJ--0" vertex="1">
          <mxGeometry y="372" width="400" height="26" as="geometry" />
        </mxCell>
        <mxCell id="slwFmxNvVLJGjqbHmk_F-73" value="- void drawPiece(int x, int y, bool black, Rect rectangle[], int num)" style="text;align=left;verticalAlign=top;spacingLeft=4;spacingRight=4;overflow=hidden;rotatable=0;points=[[0,0.5],[1,0.5]];portConstraint=eastwest;fontSize=13;" parent="zkfFHV4jXpPFQw0GAbJ--0" vertex="1">
          <mxGeometry y="398" width="400" height="26" as="geometry" />
        </mxCell>
        <mxCell id="slwFmxNvVLJGjqbHmk_F-74" value="- void drawText(int x, int y, const char* text)" style="text;align=left;verticalAlign=top;spacingLeft=4;spacingRight=4;overflow=hidden;rotatable=0;points=[[0,0.5],[1,0.5]];portConstraint=eastwest;fontSize=13;" parent="zkfFHV4jXpPFQw0GAbJ--0" vertex="1">
          <mxGeometry y="424" width="400" height="26" as="geometry" />
        </mxCell>
        <mxCell id="slwFmxNvVLJGjqbHmk_F-0" value="main" style="rounded=0;whiteSpace=wrap;html=1;" parent="WIyWlLk6GJQsqaUBKTNV-1" vertex="1">
          <mxGeometry x="440" y="40" width="80" height="40" as="geometry" />
        </mxCell>
        <mxCell id="slwFmxNvVLJGjqbHmk_F-2" value="callback" style="rounded=0;whiteSpace=wrap;html=1;" parent="WIyWlLk6GJQsqaUBKTNV-1" vertex="1">
          <mxGeometry x="400" y="120" width="160" height="80" as="geometry" />
        </mxCell>
        <mxCell id="slwFmxNvVLJGjqbHmk_F-3" value="" style="endArrow=classic;html=1;rounded=0;exitX=0.5;exitY=1;exitDx=0;exitDy=0;entryX=0.5;entryY=0;entryDx=0;entryDy=0;" parent="WIyWlLk6GJQsqaUBKTNV-1" source="slwFmxNvVLJGjqbHmk_F-0" target="slwFmxNvVLJGjqbHmk_F-2" edge="1">
          <mxGeometry relative="1" as="geometry">
            <mxPoint x="50" y="420" as="sourcePoint" />
            <mxPoint x="150" y="420" as="targetPoint" />
          </mxGeometry>
        </mxCell>
        <mxCell id="slwFmxNvVLJGjqbHmk_F-5" value="Move" style="rounded=0;whiteSpace=wrap;html=1;" parent="WIyWlLk6GJQsqaUBKTNV-1" vertex="1">
          <mxGeometry x="280" y="280" width="120" height="80" as="geometry" />
        </mxCell>
        <mxCell id="slwFmxNvVLJGjqbHmk_F-6" value="getPossibleMoves" style="rounded=0;whiteSpace=wrap;html=1;" parent="WIyWlLk6GJQsqaUBKTNV-1" vertex="1">
          <mxGeometry x="240" y="440" width="120" height="60" as="geometry" />
        </mxCell>
        <mxCell id="slwFmxNvVLJGjqbHmk_F-7" value="" style="endArrow=classic;html=1;rounded=0;exitX=0;exitY=1;exitDx=0;exitDy=0;entryX=0.25;entryY=0;entryDx=0;entryDy=0;" parent="WIyWlLk6GJQsqaUBKTNV-1" source="slwFmxNvVLJGjqbHmk_F-2" target="slwFmxNvVLJGjqbHmk_F-5" edge="1">
          <mxGeometry relative="1" as="geometry">
            <mxPoint x="430" y="330" as="sourcePoint" />
            <mxPoint x="530" y="330" as="targetPoint" />
          </mxGeometry>
        </mxCell>
        <mxCell id="slwFmxNvVLJGjqbHmk_F-8" value="&lt;div&gt;Board,&amp;nbsp;&lt;/div&gt;&lt;div&gt;oldPosition,&amp;nbsp;&lt;/div&gt;&lt;div&gt;newPosition&lt;/div&gt;" style="edgeLabel;resizable=0;html=1;align=center;verticalAlign=middle;" parent="slwFmxNvVLJGjqbHmk_F-7" connectable="0" vertex="1">
          <mxGeometry relative="1" as="geometry">
            <mxPoint x="-5" y="-40" as="offset" />
          </mxGeometry>
        </mxCell>
        <mxCell id="slwFmxNvVLJGjqbHmk_F-9" value="" style="endArrow=classic;html=1;rounded=0;exitX=0.5;exitY=0;exitDx=0;exitDy=0;entryX=0.25;entryY=1;entryDx=0;entryDy=0;" parent="WIyWlLk6GJQsqaUBKTNV-1" source="slwFmxNvVLJGjqbHmk_F-5" target="slwFmxNvVLJGjqbHmk_F-2" edge="1">
          <mxGeometry relative="1" as="geometry">
            <mxPoint x="430" y="330" as="sourcePoint" />
            <mxPoint x="530" y="330" as="targetPoint" />
          </mxGeometry>
        </mxCell>
        <mxCell id="slwFmxNvVLJGjqbHmk_F-10" value="bool sucess" style="edgeLabel;resizable=0;html=1;align=center;verticalAlign=middle;" parent="slwFmxNvVLJGjqbHmk_F-9" connectable="0" vertex="1">
          <mxGeometry relative="1" as="geometry">
            <mxPoint x="-10" y="30" as="offset" />
          </mxGeometry>
        </mxCell>
        <mxCell id="slwFmxNvVLJGjqbHmk_F-11" value="" style="endArrow=classic;html=1;rounded=0;exitX=0;exitY=1;exitDx=0;exitDy=0;entryX=0.25;entryY=0;entryDx=0;entryDy=0;" parent="WIyWlLk6GJQsqaUBKTNV-1" source="slwFmxNvVLJGjqbHmk_F-5" target="slwFmxNvVLJGjqbHmk_F-6" edge="1">
          <mxGeometry relative="1" as="geometry">
            <mxPoint x="500" y="370" as="sourcePoint" />
            <mxPoint x="530" y="330" as="targetPoint" />
          </mxGeometry>
        </mxCell>
        <mxCell id="slwFmxNvVLJGjqbHmk_F-12" value="&lt;div&gt;Board,&lt;/div&gt;&lt;div&gt;oldPosition&lt;br&gt;&lt;/div&gt;" style="edgeLabel;resizable=0;html=1;align=center;verticalAlign=middle;" parent="slwFmxNvVLJGjqbHmk_F-11" connectable="0" vertex="1">
          <mxGeometry relative="1" as="geometry">
            <mxPoint x="-5" y="-20" as="offset" />
          </mxGeometry>
        </mxCell>
        <mxCell id="slwFmxNvVLJGjqbHmk_F-15" value="" style="endArrow=classic;html=1;rounded=0;exitX=0.5;exitY=0;exitDx=0;exitDy=0;entryX=0.25;entryY=1;entryDx=0;entryDy=0;" parent="WIyWlLk6GJQsqaUBKTNV-1" source="slwFmxNvVLJGjqbHmk_F-6" target="slwFmxNvVLJGjqbHmk_F-5" edge="1">
          <mxGeometry relative="1" as="geometry">
            <mxPoint x="660" y="410" as="sourcePoint" />
            <mxPoint x="700" y="370" as="targetPoint" />
          </mxGeometry>
        </mxCell>
        <mxCell id="slwFmxNvVLJGjqbHmk_F-16" value="posibleMoves" style="edgeLabel;resizable=0;html=1;align=center;verticalAlign=middle;" parent="slwFmxNvVLJGjqbHmk_F-15" connectable="0" vertex="1">
          <mxGeometry relative="1" as="geometry">
            <mxPoint x="10" y="20" as="offset" />
          </mxGeometry>
        </mxCell>
        <mxCell id="slwFmxNvVLJGjqbHmk_F-17" value="draw" style="rounded=0;whiteSpace=wrap;html=1;" parent="WIyWlLk6GJQsqaUBKTNV-1" vertex="1">
          <mxGeometry x="600" y="280" width="80" height="40" as="geometry" />
        </mxCell>
        <mxCell id="slwFmxNvVLJGjqbHmk_F-20" value="" style="endArrow=classic;html=1;rounded=0;exitX=1;exitY=1;exitDx=0;exitDy=0;entryX=0.25;entryY=0;entryDx=0;entryDy=0;" parent="WIyWlLk6GJQsqaUBKTNV-1" source="slwFmxNvVLJGjqbHmk_F-2" target="slwFmxNvVLJGjqbHmk_F-17" edge="1">
          <mxGeometry relative="1" as="geometry">
            <mxPoint x="670" y="420" as="sourcePoint" />
            <mxPoint x="710" y="380" as="targetPoint" />
          </mxGeometry>
        </mxCell>
        <mxCell id="slwFmxNvVLJGjqbHmk_F-21" value="&lt;div&gt;Board,&lt;/div&gt;&lt;div&gt;UI,&lt;/div&gt;&lt;div&gt;posibleMoves&lt;br&gt;&lt;/div&gt;" style="edgeLabel;resizable=0;html=1;align=center;verticalAlign=middle;" parent="slwFmxNvVLJGjqbHmk_F-20" connectable="0" vertex="1">
          <mxGeometry relative="1" as="geometry">
            <mxPoint x="10" y="-20" as="offset" />
          </mxGeometry>
        </mxCell>
        <mxCell id="slwFmxNvVLJGjqbHmk_F-22" value="getPossibleMoves" style="rounded=0;whiteSpace=wrap;html=1;" parent="WIyWlLk6GJQsqaUBKTNV-1" vertex="1">
          <mxGeometry x="440" y="280" width="120" height="60" as="geometry" />
        </mxCell>
        <mxCell id="slwFmxNvVLJGjqbHmk_F-23" value="" style="endArrow=classic;html=1;rounded=0;exitX=0.5;exitY=1;exitDx=0;exitDy=0;entryX=0.25;entryY=0;entryDx=0;entryDy=0;" parent="WIyWlLk6GJQsqaUBKTNV-1" source="slwFmxNvVLJGjqbHmk_F-2" target="slwFmxNvVLJGjqbHmk_F-22" edge="1">
          <mxGeometry relative="1" as="geometry">
            <mxPoint x="440" y="270" as="sourcePoint" />
            <mxPoint x="690" y="210" as="targetPoint" />
          </mxGeometry>
        </mxCell>
        <mxCell id="slwFmxNvVLJGjqbHmk_F-24" value="&lt;div&gt;Board,&lt;/div&gt;&lt;div&gt;oldPosition&lt;br&gt;&lt;/div&gt;" style="edgeLabel;resizable=0;html=1;align=center;verticalAlign=middle;" parent="slwFmxNvVLJGjqbHmk_F-23" connectable="0" vertex="1">
          <mxGeometry relative="1" as="geometry">
            <mxPoint x="-5" y="-20" as="offset" />
          </mxGeometry>
        </mxCell>
        <mxCell id="slwFmxNvVLJGjqbHmk_F-25" value="" style="endArrow=classic;html=1;rounded=0;exitX=0.5;exitY=0;exitDx=0;exitDy=0;entryX=0.75;entryY=1;entryDx=0;entryDy=0;" parent="WIyWlLk6GJQsqaUBKTNV-1" source="slwFmxNvVLJGjqbHmk_F-22" target="slwFmxNvVLJGjqbHmk_F-2" edge="1">
          <mxGeometry relative="1" as="geometry">
            <mxPoint x="820" y="290" as="sourcePoint" />
            <mxPoint x="470" y="270" as="targetPoint" />
          </mxGeometry>
        </mxCell>
        <mxCell id="slwFmxNvVLJGjqbHmk_F-26" value="posibleMoves" style="edgeLabel;resizable=0;html=1;align=center;verticalAlign=middle;" parent="slwFmxNvVLJGjqbHmk_F-25" connectable="0" vertex="1">
          <mxGeometry relative="1" as="geometry">
            <mxPoint x="10" y="20" as="offset" />
          </mxGeometry>
        </mxCell>
        <mxCell id="slwFmxNvVLJGjqbHmk_F-27" value="Somehow readFile is in this, but i don&#39;t understand how. ive never seen a main function set up like this. its doesn&#39;t make any since." style="text;html=1;strokeColor=none;fillColor=none;align=center;verticalAlign=middle;whiteSpace=wrap;rounded=0;" parent="WIyWlLk6GJQsqaUBKTNV-1" vertex="1">
          <mxGeometry x="570" y="470" width="160" height="80" as="geometry" />
        </mxCell>
        <mxCell id="slwFmxNvVLJGjqbHmk_F-32" value="1.1" style="swimlane;fontStyle=0;childLayout=stackLayout;horizontal=1;startSize=30;horizontalStack=0;resizeParent=1;resizeParentMax=0;resizeLast=0;collapsible=1;marginBottom=0;whiteSpace=wrap;html=1;" parent="WIyWlLk6GJQsqaUBKTNV-1" vertex="1">
          <mxGeometry x="280" y="600" width="120" height="80" as="geometry" />
        </mxCell>
        <mxCell id="slwFmxNvVLJGjqbHmk_F-33" value="callback" style="text;strokeColor=none;fillColor=none;align=center;verticalAlign=middle;spacingLeft=4;spacingRight=4;overflow=hidden;points=[[0,0.5],[1,0.5]];portConstraint=eastwest;rotatable=0;whiteSpace=wrap;html=1;" parent="slwFmxNvVLJGjqbHmk_F-32" vertex="1">
          <mxGeometry y="30" width="120" height="50" as="geometry" />
        </mxCell>
        <mxCell id="slwFmxNvVLJGjqbHmk_F-34" value="1.2" style="swimlane;fontStyle=0;childLayout=stackLayout;horizontal=1;startSize=30;horizontalStack=0;resizeParent=1;resizeParentMax=0;resizeLast=0;collapsible=1;marginBottom=0;whiteSpace=wrap;html=1;" parent="WIyWlLk6GJQsqaUBKTNV-1" vertex="1">
          <mxGeometry x="480" y="640" width="120" height="80" as="geometry" />
        </mxCell>
        <mxCell id="slwFmxNvVLJGjqbHmk_F-35" value="move" style="text;strokeColor=none;fillColor=none;align=center;verticalAlign=middle;spacingLeft=4;spacingRight=4;overflow=hidden;points=[[0,0.5],[1,0.5]];portConstraint=eastwest;rotatable=0;whiteSpace=wrap;html=1;" parent="slwFmxNvVLJGjqbHmk_F-34" vertex="1">
          <mxGeometry y="30" width="120" height="50" as="geometry" />
        </mxCell>
        <mxCell id="slwFmxNvVLJGjqbHmk_F-36" value="user" style="rounded=0;whiteSpace=wrap;html=1;" parent="WIyWlLk6GJQsqaUBKTNV-1" vertex="1">
          <mxGeometry x="160" y="680" width="80" height="50" as="geometry" />
        </mxCell>
        <mxCell id="slwFmxNvVLJGjqbHmk_F-37" value="" style="endArrow=classic;html=1;rounded=0;exitX=1;exitY=0;exitDx=0;exitDy=0;entryX=0;entryY=0.5;entryDx=0;entryDy=0;" parent="WIyWlLk6GJQsqaUBKTNV-1" source="slwFmxNvVLJGjqbHmk_F-36" target="slwFmxNvVLJGjqbHmk_F-33" edge="1">
          <mxGeometry relative="1" as="geometry">
            <mxPoint x="380" y="640" as="sourcePoint" />
            <mxPoint x="480" y="640" as="targetPoint" />
          </mxGeometry>
        </mxCell>
        <mxCell id="slwFmxNvVLJGjqbHmk_F-38" value="Move" style="edgeLabel;resizable=0;html=1;align=center;verticalAlign=middle;" parent="slwFmxNvVLJGjqbHmk_F-37" connectable="0" vertex="1">
          <mxGeometry relative="1" as="geometry" />
        </mxCell>
        <mxCell id="slwFmxNvVLJGjqbHmk_F-39" value="" style="endArrow=classic;html=1;rounded=0;exitX=1.008;exitY=0.32;exitDx=0;exitDy=0;exitPerimeter=0;entryX=0;entryY=0.25;entryDx=0;entryDy=0;" parent="WIyWlLk6GJQsqaUBKTNV-1" source="slwFmxNvVLJGjqbHmk_F-33" target="slwFmxNvVLJGjqbHmk_F-34" edge="1">
          <mxGeometry relative="1" as="geometry">
            <mxPoint x="380" y="640" as="sourcePoint" />
            <mxPoint x="480" y="640" as="targetPoint" />
          </mxGeometry>
        </mxCell>
        <mxCell id="slwFmxNvVLJGjqbHmk_F-40" value="&lt;div&gt;Board,&amp;nbsp;&lt;/div&gt;&lt;div&gt;oldPosition,&amp;nbsp;&lt;/div&gt;&lt;div&gt;newPosition&lt;/div&gt;" style="edgeLabel;resizable=0;html=1;align=center;verticalAlign=middle;" parent="slwFmxNvVLJGjqbHmk_F-39" connectable="0" vertex="1">
          <mxGeometry relative="1" as="geometry">
            <mxPoint y="-13" as="offset" />
          </mxGeometry>
        </mxCell>
        <mxCell id="slwFmxNvVLJGjqbHmk_F-41" value="1.2" style="swimlane;fontStyle=0;childLayout=stackLayout;horizontal=1;startSize=30;horizontalStack=0;resizeParent=1;resizeParentMax=0;resizeLast=0;collapsible=1;marginBottom=0;whiteSpace=wrap;html=1;" parent="WIyWlLk6GJQsqaUBKTNV-1" vertex="1">
          <mxGeometry x="320" y="880" width="120" height="80" as="geometry" />
        </mxCell>
        <mxCell id="slwFmxNvVLJGjqbHmk_F-42" value="move" style="text;strokeColor=none;fillColor=none;align=center;verticalAlign=middle;spacingLeft=4;spacingRight=4;overflow=hidden;points=[[0,0.5],[1,0.5]];portConstraint=eastwest;rotatable=0;whiteSpace=wrap;html=1;" parent="slwFmxNvVLJGjqbHmk_F-41" vertex="1">
          <mxGeometry y="30" width="120" height="50" as="geometry" />
        </mxCell>
        <mxCell id="slwFmxNvVLJGjqbHmk_F-46" value="1.3" style="swimlane;fontStyle=0;childLayout=stackLayout;horizontal=1;startSize=30;horizontalStack=0;resizeParent=1;resizeParentMax=0;resizeLast=0;collapsible=1;marginBottom=0;whiteSpace=wrap;html=1;" parent="WIyWlLk6GJQsqaUBKTNV-1" vertex="1">
          <mxGeometry x="480" y="800" width="120" height="80" as="geometry" />
        </mxCell>
        <mxCell id="slwFmxNvVLJGjqbHmk_F-47" value="getPossibleMoves" style="text;strokeColor=none;fillColor=none;align=center;verticalAlign=middle;spacingLeft=4;spacingRight=4;overflow=hidden;points=[[0,0.5],[1,0.5]];portConstraint=eastwest;rotatable=0;whiteSpace=wrap;html=1;" parent="slwFmxNvVLJGjqbHmk_F-46" vertex="1">
          <mxGeometry y="30" width="120" height="50" as="geometry" />
        </mxCell>
        <mxCell id="slwFmxNvVLJGjqbHmk_F-48" value="" style="endArrow=classic;html=1;rounded=0;entryX=0.5;entryY=0;entryDx=0;entryDy=0;exitX=0.5;exitY=1;exitDx=0;exitDy=0;" parent="WIyWlLk6GJQsqaUBKTNV-1" source="slwFmxNvVLJGjqbHmk_F-34" target="slwFmxNvVLJGjqbHmk_F-46" edge="1">
          <mxGeometry relative="1" as="geometry">
            <mxPoint x="560" y="760" as="sourcePoint" />
            <mxPoint x="280" y="450" as="targetPoint" />
          </mxGeometry>
        </mxCell>
        <mxCell id="slwFmxNvVLJGjqbHmk_F-49" value="&lt;div&gt;Board,&lt;/div&gt;&lt;div&gt;oldPosition&lt;br&gt;&lt;/div&gt;" style="edgeLabel;resizable=0;html=1;align=center;verticalAlign=middle;" parent="slwFmxNvVLJGjqbHmk_F-48" connectable="0" vertex="1">
          <mxGeometry relative="1" as="geometry">
            <mxPoint y="-10" as="offset" />
          </mxGeometry>
        </mxCell>
        <mxCell id="slwFmxNvVLJGjqbHmk_F-50" value="" style="endArrow=classic;html=1;rounded=0;exitX=0;exitY=0.5;exitDx=0;exitDy=0;entryX=1;entryY=0.5;entryDx=0;entryDy=0;" parent="WIyWlLk6GJQsqaUBKTNV-1" source="slwFmxNvVLJGjqbHmk_F-47" target="slwFmxNvVLJGjqbHmk_F-42" edge="1">
          <mxGeometry relative="1" as="geometry">
            <mxPoint x="310" y="450" as="sourcePoint" />
            <mxPoint x="320" y="370" as="targetPoint" />
          </mxGeometry>
        </mxCell>
        <mxCell id="slwFmxNvVLJGjqbHmk_F-51" value="posibleMoves" style="edgeLabel;resizable=0;html=1;align=center;verticalAlign=middle;" parent="slwFmxNvVLJGjqbHmk_F-50" connectable="0" vertex="1">
          <mxGeometry relative="1" as="geometry">
            <mxPoint x="10" y="5" as="offset" />
          </mxGeometry>
        </mxCell>
        <mxCell id="slwFmxNvVLJGjqbHmk_F-52" value="" style="endArrow=classic;html=1;rounded=0;entryX=1;entryY=1;entryDx=0;entryDy=0;exitX=0;exitY=0.5;exitDx=0;exitDy=0;" parent="WIyWlLk6GJQsqaUBKTNV-1" source="slwFmxNvVLJGjqbHmk_F-55" target="slwFmxNvVLJGjqbHmk_F-36" edge="1">
          <mxGeometry relative="1" as="geometry">
            <mxPoint x="270" y="855" as="sourcePoint" />
            <mxPoint x="530" y="660" as="targetPoint" />
          </mxGeometry>
        </mxCell>
        <mxCell id="slwFmxNvVLJGjqbHmk_F-53" value="newBoard" style="edgeLabel;resizable=0;html=1;align=center;verticalAlign=middle;" parent="slwFmxNvVLJGjqbHmk_F-52" connectable="0" vertex="1">
          <mxGeometry relative="1" as="geometry" />
        </mxCell>
        <mxCell id="slwFmxNvVLJGjqbHmk_F-54" value="1.4" style="swimlane;fontStyle=0;childLayout=stackLayout;horizontal=1;startSize=30;horizontalStack=0;resizeParent=1;resizeParentMax=0;resizeLast=0;collapsible=1;marginBottom=0;whiteSpace=wrap;html=1;" parent="WIyWlLk6GJQsqaUBKTNV-1" vertex="1">
          <mxGeometry x="320" y="720" width="120" height="80" as="geometry" />
        </mxCell>
        <mxCell id="slwFmxNvVLJGjqbHmk_F-55" value="draw" style="text;strokeColor=none;fillColor=none;align=center;verticalAlign=middle;spacingLeft=4;spacingRight=4;overflow=hidden;points=[[0,0.5],[1,0.5]];portConstraint=eastwest;rotatable=0;whiteSpace=wrap;html=1;" parent="slwFmxNvVLJGjqbHmk_F-54" vertex="1">
          <mxGeometry y="30" width="120" height="50" as="geometry" />
        </mxCell>
        <mxCell id="slwFmxNvVLJGjqbHmk_F-56" value="1.1" style="swimlane;fontStyle=0;childLayout=stackLayout;horizontal=1;startSize=30;horizontalStack=0;resizeParent=1;resizeParentMax=0;resizeLast=0;collapsible=1;marginBottom=0;whiteSpace=wrap;html=1;" parent="WIyWlLk6GJQsqaUBKTNV-1" vertex="1">
          <mxGeometry x="160" y="800" width="120" height="80" as="geometry" />
        </mxCell>
        <mxCell id="slwFmxNvVLJGjqbHmk_F-57" value="callback" style="text;strokeColor=none;fillColor=none;align=center;verticalAlign=middle;spacingLeft=4;spacingRight=4;overflow=hidden;points=[[0,0.5],[1,0.5]];portConstraint=eastwest;rotatable=0;whiteSpace=wrap;html=1;" parent="slwFmxNvVLJGjqbHmk_F-56" vertex="1">
          <mxGeometry y="30" width="120" height="50" as="geometry" />
        </mxCell>
        <mxCell id="slwFmxNvVLJGjqbHmk_F-58" value="" style="endArrow=classic;html=1;rounded=0;exitX=0;exitY=0.5;exitDx=0;exitDy=0;entryX=1;entryY=0.5;entryDx=0;entryDy=0;" parent="WIyWlLk6GJQsqaUBKTNV-1" source="slwFmxNvVLJGjqbHmk_F-42" target="slwFmxNvVLJGjqbHmk_F-57" edge="1">
          <mxGeometry relative="1" as="geometry">
            <mxPoint x="420" y="510" as="sourcePoint" />
            <mxPoint x="500" y="520" as="targetPoint" />
          </mxGeometry>
        </mxCell>
        <mxCell id="slwFmxNvVLJGjqbHmk_F-59" value="bool sucess" style="edgeLabel;resizable=0;html=1;align=center;verticalAlign=middle;" parent="slwFmxNvVLJGjqbHmk_F-58" connectable="0" vertex="1">
          <mxGeometry relative="1" as="geometry">
            <mxPoint x="-20" y="15" as="offset" />
          </mxGeometry>
        </mxCell>
        <mxCell id="slwFmxNvVLJGjqbHmk_F-60" value="" style="endArrow=classic;html=1;rounded=0;exitX=1;exitY=0.25;exitDx=0;exitDy=0;entryX=0.492;entryY=1.02;entryDx=0;entryDy=0;entryPerimeter=0;" parent="WIyWlLk6GJQsqaUBKTNV-1" source="slwFmxNvVLJGjqbHmk_F-56" target="slwFmxNvVLJGjqbHmk_F-55" edge="1">
          <mxGeometry relative="1" as="geometry">
            <mxPoint x="380" y="690" as="sourcePoint" />
            <mxPoint x="380" y="810" as="targetPoint" />
          </mxGeometry>
        </mxCell>
        <mxCell id="slwFmxNvVLJGjqbHmk_F-61" value="&lt;div&gt;Board,&amp;nbsp;&lt;/div&gt;&lt;div&gt;posibleMoves&lt;/div&gt;" style="edgeLabel;resizable=0;html=1;align=center;verticalAlign=middle;" parent="slwFmxNvVLJGjqbHmk_F-60" connectable="0" vertex="1">
          <mxGeometry relative="1" as="geometry">
            <mxPoint x="1" y="19" as="offset" />
          </mxGeometry>
        </mxCell>
        <mxCell id="glIxBtMsoQ3GbJYR0LhH-21" value="main" style="rounded=0;whiteSpace=wrap;html=1;" vertex="1" parent="WIyWlLk6GJQsqaUBKTNV-1">
          <mxGeometry x="-520" y="600" width="80" height="40" as="geometry" />
        </mxCell>
        <mxCell id="glIxBtMsoQ3GbJYR0LhH-22" value="callback" style="rounded=0;whiteSpace=wrap;html=1;" vertex="1" parent="WIyWlLk6GJQsqaUBKTNV-1">
          <mxGeometry x="-560" y="680" width="160" height="80" as="geometry" />
        </mxCell>
        <mxCell id="glIxBtMsoQ3GbJYR0LhH-23" value="" style="endArrow=classic;html=1;rounded=0;exitX=0.5;exitY=1;exitDx=0;exitDy=0;entryX=0.5;entryY=0;entryDx=0;entryDy=0;" edge="1" parent="WIyWlLk6GJQsqaUBKTNV-1" source="glIxBtMsoQ3GbJYR0LhH-21" target="glIxBtMsoQ3GbJYR0LhH-22">
          <mxGeometry relative="1" as="geometry">
            <mxPoint x="-910" y="980" as="sourcePoint" />
            <mxPoint x="-810" y="980" as="targetPoint" />
          </mxGeometry>
        </mxCell>
        <mxCell id="glIxBtMsoQ3GbJYR0LhH-24" value="Move" style="rounded=0;whiteSpace=wrap;html=1;" vertex="1" parent="WIyWlLk6GJQsqaUBKTNV-1">
          <mxGeometry x="-680" y="840" width="120" height="80" as="geometry" />
        </mxCell>
        <mxCell id="glIxBtMsoQ3GbJYR0LhH-25" value="getPossibleMoves" style="rounded=0;whiteSpace=wrap;html=1;" vertex="1" parent="WIyWlLk6GJQsqaUBKTNV-1">
          <mxGeometry x="-800" y="960" width="120" height="80" as="geometry" />
        </mxCell>
        <mxCell id="glIxBtMsoQ3GbJYR0LhH-26" value="" style="endArrow=classic;html=1;rounded=0;exitX=0;exitY=1;exitDx=0;exitDy=0;entryX=0.25;entryY=0;entryDx=0;entryDy=0;" edge="1" parent="WIyWlLk6GJQsqaUBKTNV-1" source="glIxBtMsoQ3GbJYR0LhH-22" target="glIxBtMsoQ3GbJYR0LhH-24">
          <mxGeometry relative="1" as="geometry">
            <mxPoint x="-530" y="890" as="sourcePoint" />
            <mxPoint x="-430" y="890" as="targetPoint" />
          </mxGeometry>
        </mxCell>
        <mxCell id="glIxBtMsoQ3GbJYR0LhH-27" value="&lt;div&gt;Board,&amp;nbsp;&lt;/div&gt;&lt;div&gt;oldPosition,&amp;nbsp;&lt;/div&gt;&lt;div&gt;newPosition&lt;/div&gt;" style="edgeLabel;resizable=0;html=1;align=center;verticalAlign=middle;" connectable="0" vertex="1" parent="glIxBtMsoQ3GbJYR0LhH-26">
          <mxGeometry relative="1" as="geometry">
            <mxPoint x="-5" y="-40" as="offset" />
          </mxGeometry>
        </mxCell>
        <mxCell id="glIxBtMsoQ3GbJYR0LhH-28" value="" style="endArrow=classic;html=1;rounded=0;exitX=0.5;exitY=0;exitDx=0;exitDy=0;entryX=0.25;entryY=1;entryDx=0;entryDy=0;" edge="1" parent="WIyWlLk6GJQsqaUBKTNV-1" source="glIxBtMsoQ3GbJYR0LhH-24" target="glIxBtMsoQ3GbJYR0LhH-22">
          <mxGeometry relative="1" as="geometry">
            <mxPoint x="-530" y="890" as="sourcePoint" />
            <mxPoint x="-430" y="890" as="targetPoint" />
          </mxGeometry>
        </mxCell>
        <mxCell id="glIxBtMsoQ3GbJYR0LhH-29" value="&lt;div&gt;bool sucess,&lt;/div&gt;&lt;div&gt;Board&lt;br&gt;&lt;/div&gt;" style="edgeLabel;resizable=0;html=1;align=center;verticalAlign=middle;" connectable="0" vertex="1" parent="glIxBtMsoQ3GbJYR0LhH-28">
          <mxGeometry relative="1" as="geometry">
            <mxPoint y="20" as="offset" />
          </mxGeometry>
        </mxCell>
        <mxCell id="glIxBtMsoQ3GbJYR0LhH-30" value="" style="endArrow=classic;html=1;rounded=0;exitX=0;exitY=1;exitDx=0;exitDy=0;entryX=0.25;entryY=0;entryDx=0;entryDy=0;" edge="1" parent="WIyWlLk6GJQsqaUBKTNV-1" source="glIxBtMsoQ3GbJYR0LhH-24" target="glIxBtMsoQ3GbJYR0LhH-25">
          <mxGeometry relative="1" as="geometry">
            <mxPoint x="-460" y="930" as="sourcePoint" />
            <mxPoint x="-430" y="890" as="targetPoint" />
          </mxGeometry>
        </mxCell>
        <mxCell id="glIxBtMsoQ3GbJYR0LhH-31" value="&lt;div&gt;Board,&lt;/div&gt;&lt;div&gt;oldPosition&lt;br&gt;&lt;/div&gt;" style="edgeLabel;resizable=0;html=1;align=center;verticalAlign=middle;" connectable="0" vertex="1" parent="glIxBtMsoQ3GbJYR0LhH-30">
          <mxGeometry relative="1" as="geometry">
            <mxPoint x="-5" y="-10" as="offset" />
          </mxGeometry>
        </mxCell>
        <mxCell id="glIxBtMsoQ3GbJYR0LhH-32" value="" style="endArrow=classic;html=1;rounded=0;exitX=0.5;exitY=0;exitDx=0;exitDy=0;entryX=0.25;entryY=1;entryDx=0;entryDy=0;" edge="1" parent="WIyWlLk6GJQsqaUBKTNV-1" source="glIxBtMsoQ3GbJYR0LhH-25" target="glIxBtMsoQ3GbJYR0LhH-24">
          <mxGeometry relative="1" as="geometry">
            <mxPoint x="-300" y="970" as="sourcePoint" />
            <mxPoint x="-260" y="930" as="targetPoint" />
          </mxGeometry>
        </mxCell>
        <mxCell id="glIxBtMsoQ3GbJYR0LhH-33" value="posibleMoves" style="edgeLabel;resizable=0;html=1;align=center;verticalAlign=middle;" connectable="0" vertex="1" parent="glIxBtMsoQ3GbJYR0LhH-32">
          <mxGeometry relative="1" as="geometry">
            <mxPoint x="10" y="20" as="offset" />
          </mxGeometry>
        </mxCell>
        <mxCell id="glIxBtMsoQ3GbJYR0LhH-34" value="draw" style="rounded=0;whiteSpace=wrap;html=1;" vertex="1" parent="WIyWlLk6GJQsqaUBKTNV-1">
          <mxGeometry x="-360" y="840" width="80" height="40" as="geometry" />
        </mxCell>
        <mxCell id="glIxBtMsoQ3GbJYR0LhH-35" value="" style="endArrow=classic;html=1;rounded=0;exitX=1;exitY=1;exitDx=0;exitDy=0;entryX=0.25;entryY=0;entryDx=0;entryDy=0;" edge="1" parent="WIyWlLk6GJQsqaUBKTNV-1" source="glIxBtMsoQ3GbJYR0LhH-22" target="glIxBtMsoQ3GbJYR0LhH-34">
          <mxGeometry relative="1" as="geometry">
            <mxPoint x="-290" y="980" as="sourcePoint" />
            <mxPoint x="-250" y="940" as="targetPoint" />
          </mxGeometry>
        </mxCell>
        <mxCell id="glIxBtMsoQ3GbJYR0LhH-36" value="&lt;div&gt;Board,&lt;/div&gt;&lt;div&gt;UI,&lt;/div&gt;&lt;div&gt;posibleMoves&lt;br&gt;&lt;/div&gt;" style="edgeLabel;resizable=0;html=1;align=center;verticalAlign=middle;" connectable="0" vertex="1" parent="glIxBtMsoQ3GbJYR0LhH-35">
          <mxGeometry relative="1" as="geometry">
            <mxPoint x="10" y="-20" as="offset" />
          </mxGeometry>
        </mxCell>
        <mxCell id="glIxBtMsoQ3GbJYR0LhH-37" value="getPossibleMoves" style="rounded=0;whiteSpace=wrap;html=1;" vertex="1" parent="WIyWlLk6GJQsqaUBKTNV-1">
          <mxGeometry x="-520" y="840" width="120" height="60" as="geometry" />
        </mxCell>
        <mxCell id="glIxBtMsoQ3GbJYR0LhH-38" value="" style="endArrow=classic;html=1;rounded=0;exitX=0.5;exitY=1;exitDx=0;exitDy=0;entryX=0.25;entryY=0;entryDx=0;entryDy=0;" edge="1" parent="WIyWlLk6GJQsqaUBKTNV-1" source="glIxBtMsoQ3GbJYR0LhH-22" target="glIxBtMsoQ3GbJYR0LhH-37">
          <mxGeometry relative="1" as="geometry">
            <mxPoint x="-520" y="830" as="sourcePoint" />
            <mxPoint x="-270" y="770" as="targetPoint" />
          </mxGeometry>
        </mxCell>
        <mxCell id="glIxBtMsoQ3GbJYR0LhH-39" value="&lt;div&gt;Board,&lt;/div&gt;&lt;div&gt;oldPosition&lt;br&gt;&lt;/div&gt;" style="edgeLabel;resizable=0;html=1;align=center;verticalAlign=middle;" connectable="0" vertex="1" parent="glIxBtMsoQ3GbJYR0LhH-38">
          <mxGeometry relative="1" as="geometry">
            <mxPoint x="-5" y="-20" as="offset" />
          </mxGeometry>
        </mxCell>
        <mxCell id="glIxBtMsoQ3GbJYR0LhH-40" value="" style="endArrow=classic;html=1;rounded=0;exitX=0.5;exitY=0;exitDx=0;exitDy=0;entryX=0.75;entryY=1;entryDx=0;entryDy=0;" edge="1" parent="WIyWlLk6GJQsqaUBKTNV-1" source="glIxBtMsoQ3GbJYR0LhH-37" target="glIxBtMsoQ3GbJYR0LhH-22">
          <mxGeometry relative="1" as="geometry">
            <mxPoint x="-140" y="850" as="sourcePoint" />
            <mxPoint x="-490" y="830" as="targetPoint" />
          </mxGeometry>
        </mxCell>
        <mxCell id="glIxBtMsoQ3GbJYR0LhH-41" value="posibleMoves" style="edgeLabel;resizable=0;html=1;align=center;verticalAlign=middle;" connectable="0" vertex="1" parent="glIxBtMsoQ3GbJYR0LhH-40">
          <mxGeometry relative="1" as="geometry">
            <mxPoint x="10" y="20" as="offset" />
          </mxGeometry>
        </mxCell>
        <mxCell id="glIxBtMsoQ3GbJYR0LhH-42" value="PawnPromotion" style="rounded=0;whiteSpace=wrap;html=1;fontSize=12;" vertex="1" parent="WIyWlLk6GJQsqaUBKTNV-1">
          <mxGeometry x="-600" y="1000" width="120" height="40" as="geometry" />
        </mxCell>
        <mxCell id="glIxBtMsoQ3GbJYR0LhH-43" value="" style="endArrow=classic;html=1;rounded=0;exitX=0.5;exitY=1;exitDx=0;exitDy=0;entryX=0;entryY=0;entryDx=0;entryDy=0;" edge="1" parent="WIyWlLk6GJQsqaUBKTNV-1" source="glIxBtMsoQ3GbJYR0LhH-24" target="glIxBtMsoQ3GbJYR0LhH-42">
          <mxGeometry relative="1" as="geometry">
            <mxPoint x="-670" y="930" as="sourcePoint" />
            <mxPoint x="-680" y="1010" as="targetPoint" />
          </mxGeometry>
        </mxCell>
        <mxCell id="glIxBtMsoQ3GbJYR0LhH-44" value="&lt;div&gt;Board,&lt;/div&gt;&lt;div&gt;newPosition&lt;br&gt;&lt;/div&gt;" style="edgeLabel;resizable=0;html=1;align=center;verticalAlign=middle;" connectable="0" vertex="1" parent="glIxBtMsoQ3GbJYR0LhH-43">
          <mxGeometry relative="1" as="geometry">
            <mxPoint x="-5" y="10" as="offset" />
          </mxGeometry>
        </mxCell>
        <mxCell id="glIxBtMsoQ3GbJYR0LhH-45" value="" style="endArrow=classic;html=1;rounded=0;fontSize=12;startSize=8;endSize=8;curved=1;exitX=0.5;exitY=0;exitDx=0;exitDy=0;entryX=1;entryY=1;entryDx=0;entryDy=0;" edge="1" parent="WIyWlLk6GJQsqaUBKTNV-1" source="glIxBtMsoQ3GbJYR0LhH-42" target="glIxBtMsoQ3GbJYR0LhH-24">
          <mxGeometry relative="1" as="geometry">
            <mxPoint x="-560" y="1080" as="sourcePoint" />
            <mxPoint x="-460" y="1080" as="targetPoint" />
          </mxGeometry>
        </mxCell>
        <mxCell id="glIxBtMsoQ3GbJYR0LhH-46" value="&lt;font style=&quot;font-size: 12px;&quot;&gt;board&lt;/font&gt;" style="edgeLabel;resizable=0;html=1;align=center;verticalAlign=middle;fontSize=16;" connectable="0" vertex="1" parent="glIxBtMsoQ3GbJYR0LhH-45">
          <mxGeometry relative="1" as="geometry">
            <mxPoint x="15" y="10" as="offset" />
          </mxGeometry>
        </mxCell>
        <mxCell id="glIxBtMsoQ3GbJYR0LhH-48" value="&lt;font style=&quot;font-size: 14px;&quot;&gt;can&lt;font style=&quot;font-size: 14px;&quot;&gt;En-Passant&lt;/font&gt;&lt;/font&gt;" style="rounded=0;whiteSpace=wrap;html=1;fontSize=16;" vertex="1" parent="WIyWlLk6GJQsqaUBKTNV-1">
          <mxGeometry x="-880" y="1120" width="120" height="40" as="geometry" />
        </mxCell>
        <mxCell id="glIxBtMsoQ3GbJYR0LhH-49" value="" style="endArrow=classic;html=1;rounded=0;exitX=0;exitY=1;exitDx=0;exitDy=0;entryX=0.25;entryY=0;entryDx=0;entryDy=0;exitPerimeter=0;" edge="1" parent="WIyWlLk6GJQsqaUBKTNV-1" source="glIxBtMsoQ3GbJYR0LhH-25" target="glIxBtMsoQ3GbJYR0LhH-48">
          <mxGeometry relative="1" as="geometry">
            <mxPoint x="-670" y="930" as="sourcePoint" />
            <mxPoint x="-760" y="970" as="targetPoint" />
          </mxGeometry>
        </mxCell>
        <mxCell id="glIxBtMsoQ3GbJYR0LhH-50" value="&lt;div&gt;Board,&lt;/div&gt;&lt;div&gt;oldPosition&lt;br&gt;&lt;/div&gt;" style="edgeLabel;resizable=0;html=1;align=center;verticalAlign=middle;" connectable="0" vertex="1" parent="glIxBtMsoQ3GbJYR0LhH-49">
          <mxGeometry relative="1" as="geometry">
            <mxPoint x="-15" y="-30" as="offset" />
          </mxGeometry>
        </mxCell>
        <mxCell id="glIxBtMsoQ3GbJYR0LhH-51" value="" style="endArrow=classic;html=1;rounded=0;fontSize=12;startSize=8;endSize=8;curved=1;exitX=0.5;exitY=0;exitDx=0;exitDy=0;entryX=0.25;entryY=1;entryDx=0;entryDy=0;" edge="1" parent="WIyWlLk6GJQsqaUBKTNV-1" source="glIxBtMsoQ3GbJYR0LhH-48" target="glIxBtMsoQ3GbJYR0LhH-25">
          <mxGeometry relative="1" as="geometry">
            <mxPoint x="-570" y="960" as="sourcePoint" />
            <mxPoint x="-470" y="960" as="targetPoint" />
          </mxGeometry>
        </mxCell>
        <mxCell id="glIxBtMsoQ3GbJYR0LhH-52" value="&lt;font style=&quot;font-size: 12px;&quot;&gt;IsPosible&lt;/font&gt;" style="edgeLabel;resizable=0;html=1;align=center;verticalAlign=middle;fontSize=16;" connectable="0" vertex="1" parent="glIxBtMsoQ3GbJYR0LhH-51">
          <mxGeometry relative="1" as="geometry">
            <mxPoint x="5" y="20" as="offset" />
          </mxGeometry>
        </mxCell>
        <mxCell id="glIxBtMsoQ3GbJYR0LhH-53" value="&lt;font style=&quot;font-size: 14px;&quot;&gt;can&lt;font style=&quot;font-size: 14px;&quot;&gt;Castle&lt;/font&gt;&lt;/font&gt;" style="rounded=0;whiteSpace=wrap;html=1;fontSize=16;" vertex="1" parent="WIyWlLk6GJQsqaUBKTNV-1">
          <mxGeometry x="-720" y="1120" width="120" height="40" as="geometry" />
        </mxCell>
        <mxCell id="glIxBtMsoQ3GbJYR0LhH-54" value="" style="endArrow=classic;html=1;rounded=0;exitX=0.75;exitY=1;exitDx=0;exitDy=0;entryX=0.25;entryY=0;entryDx=0;entryDy=0;" edge="1" parent="WIyWlLk6GJQsqaUBKTNV-1" target="glIxBtMsoQ3GbJYR0LhH-53" source="glIxBtMsoQ3GbJYR0LhH-25">
          <mxGeometry relative="1" as="geometry">
            <mxPoint x="-610" y="1060" as="sourcePoint" />
            <mxPoint x="-570" y="990" as="targetPoint" />
          </mxGeometry>
        </mxCell>
        <mxCell id="glIxBtMsoQ3GbJYR0LhH-55" value="&lt;div&gt;Board,&lt;/div&gt;&lt;div&gt;oldPosition&lt;br&gt;&lt;/div&gt;" style="edgeLabel;resizable=0;html=1;align=center;verticalAlign=middle;" connectable="0" vertex="1" parent="glIxBtMsoQ3GbJYR0LhH-54">
          <mxGeometry relative="1" as="geometry">
            <mxPoint x="-20" y="-20" as="offset" />
          </mxGeometry>
        </mxCell>
        <mxCell id="glIxBtMsoQ3GbJYR0LhH-56" value="" style="endArrow=classic;html=1;rounded=0;fontSize=12;startSize=8;endSize=8;curved=1;exitX=0.5;exitY=0;exitDx=0;exitDy=0;entryX=1;entryY=1;entryDx=0;entryDy=0;" edge="1" parent="WIyWlLk6GJQsqaUBKTNV-1" source="glIxBtMsoQ3GbJYR0LhH-53" target="glIxBtMsoQ3GbJYR0LhH-25">
          <mxGeometry relative="1" as="geometry">
            <mxPoint x="-380" y="980" as="sourcePoint" />
            <mxPoint x="-580" y="1060" as="targetPoint" />
          </mxGeometry>
        </mxCell>
        <mxCell id="glIxBtMsoQ3GbJYR0LhH-57" value="&lt;font style=&quot;font-size: 12px;&quot;&gt;IsPosible&lt;/font&gt;" style="edgeLabel;resizable=0;html=1;align=center;verticalAlign=middle;fontSize=16;" connectable="0" vertex="1" parent="glIxBtMsoQ3GbJYR0LhH-56">
          <mxGeometry relative="1" as="geometry">
            <mxPoint x="20" y="20" as="offset" />
          </mxGeometry>
        </mxCell>
      </root>
    </mxGraphModel>
  </diagram>
</mxfile>
